<svg fill="none" height="16" viewBox="0 0 16 16" width="16" xmlns="http://www.w3.org/2000/svg" xmlns:xlink="http://www.w3.org/1999/xlink"><clipPath id="a"><path d="m0 0h16v16h-16z"/></clipPath><g clip-path="url(#a)"><rect fill="#b9dfe9" height="16" rx="2" width="16"/><g fill="#000"><path d="m3.20002 3.422v3.08h2.332c2.035 0 2.024-3.08 0-3.08zm2.332 4.213h-2.332v2.365h-1.232v-7.7c1.177 0 2.387-.011 3.564-.011 3.674 0 3.685 5.324 0 5.346z"/><path d="m9.20002 7.422v3.08h2.33198c2.035 0 2.024-3.08 0-3.08zm2.33198 4.213h-2.33198v2.365h-1.232v-7.7c1.177 0 2.38698-.011 3.56398-.011 3.674 0 3.685 5.324 0 5.346z"/></g></g></svg>