<svg xmlns="http://www.w3.org/2000/svg" width="48" height="48" viewBox="0 0 48 48" fill="none">
<path d="M24 4.80005C34.605 4.80005 43.2001 13.395 43.2001 24C43.2001 34.605 34.605 43.2001 24 43.2001C13.395 43.2001 4.80005 34.605 4.80005 24C4.80005 13.395 13.395 4.80005 24 4.80005ZM22.2 13.8V24C22.2 24.6 22.5001 25.1625 23.0026 25.5L30.2026 30.3C31.0276 30.855 32.145 30.63 32.7 29.7975C33.255 28.965 33.03 27.855 32.1975 27.3L25.8 23.0401V13.8C25.8 12.8025 24.9975 12 24 12C23.0025 12 22.2 12.8025 22.2 13.8Z" fill="black"/>
</svg>